<?xml version="1.0" encoding="UTF-8"?>
<!DOCTYPE svg PUBLIC "-//W3C//DTD SVG 1.1//EN" "http://www.w3.org/Graphics/SVG/1.1/DTD/svg11.dtd">
<svg xmlns="http://www.w3.org/2000/svg" version="1.1" width="133px" height="150px" style="shape-rendering:geometricPrecision; text-rendering:geometricPrecision; image-rendering:optimizeQuality; fill-rule:evenodd; clip-rule:evenodd" xmlns:xlink="http://www.w3.org/1999/xlink">
<g><path style="opacity:1" fill="#fd160a" d="M 27.5,85.5 C 28.5676,86.4345 29.901,86.7678 31.5,86.5C 31.5,85.1667 31.5,83.8333 31.5,82.5C 31.4405,69.2831 34.6072,56.9497 41,45.5C 49.0354,36.2732 59.202,32.4399 71.5,34C 87.5053,33.5324 103.505,33.6991 119.5,34.5C 119.666,40.1764 119.499,45.8431 119,51.5C 118.626,52.4162 118.126,53.2496 117.5,54C 114.09,55.0284 110.59,55.5284 107,55.5C 93.8106,54.0445 80.644,54.2112 67.5,56C 62.1603,57.4101 58.327,60.5768 56,65.5C 54.5077,72.1207 53.3411,78.7874 52.5,85.5C 59.1571,84.5713 65.8238,84.0713 72.5,84C 62.4727,101.217 52.3061,118.383 42,135.5C 31.4142,117.976 21.4142,100.31 12,82.5C 17.1336,83.5507 22.3003,84.5507 27.5,85.5 Z"/></g>
<g><path style="opacity:0.761" fill="#e18a88" d="M 31.5,82.5 C 31.5,83.8333 31.5,85.1667 31.5,86.5C 29.901,86.7678 28.5676,86.4345 27.5,85.5C 28.5,85.5 29.5,85.5 30.5,85.5C 30.2627,84.209 30.596,83.209 31.5,82.5 Z"/></g>
</svg>
