<?xml version="1.0" encoding="UTF-8"?>
<!DOCTYPE svg PUBLIC "-//W3C//DTD SVG 1.1//EN" "http://www.w3.org/Graphics/SVG/1.1/DTD/svg11.dtd">
<svg xmlns="http://www.w3.org/2000/svg" version="1.1" width="133px" height="150px" style="shape-rendering:geometricPrecision; text-rendering:geometricPrecision; image-rendering:optimizeQuality; fill-rule:evenodd; clip-rule:evenodd" xmlns:xlink="http://www.w3.org/1999/xlink">
<g><path style="opacity:0.999" fill="#fd170b" d="M 100.5,82.5 C 100.5,83.8333 100.5,85.1667 100.5,86.5C 102.415,86.7845 104.081,86.4511 105.5,85.5C 109.394,84.4066 113.394,83.7399 117.5,83.5C 118.492,83.3284 119.158,83.6618 119.5,84.5C 110.195,101.772 100.362,118.772 90,135.5C 80.1667,118.5 70.3333,101.5 60.5,84.5C 61.5,84.1667 62.5,83.8333 63.5,83.5C 68.8057,84.4486 74.1391,85.1152 79.5,85.5C 78.91,77.1875 77.0766,69.1875 74,61.5C 69.3906,57.1836 63.8906,55.0169 57.5,55C 43.758,54.9793 30.0913,54.8127 16.5,54.5C 16.0269,53.0937 15.0269,52.427 13.5,52.5C 12.5447,46.5907 12.2114,40.5907 12.5,34.5C 29.8254,33.5792 47.1587,33.4125 64.5,34C 78.8242,33.4084 88.9908,39.575 95,52.5C 98.6429,62.1667 100.476,72.1667 100.5,82.5 Z"/></g>
<g><path style="opacity:0.89" fill="#f88f86" d="M 13.5,52.5 C 15.0269,52.427 16.0269,53.0937 16.5,54.5C 14.9731,54.573 13.9731,53.9063 13.5,52.5 Z"/></g>
<g><path style="opacity:0.294" fill="#d67d7b" d="M 117.5,83.5 C 118.386,82.2241 119.386,82.2241 120.5,83.5C 120.376,84.1067 120.043,84.44 119.5,84.5C 119.158,83.6618 118.492,83.3284 117.5,83.5 Z"/></g>
<g><path style="opacity:0.906" fill="#e8655f" d="M 100.5,82.5 C 101.404,83.209 101.737,84.209 101.5,85.5C 102.833,85.5 104.167,85.5 105.5,85.5C 104.081,86.4511 102.415,86.7845 100.5,86.5C 100.5,85.1667 100.5,83.8333 100.5,82.5 Z"/></g>
</svg>
