<svg width="110" height="149" viewBox="0 0 110 149" fill="none" xmlns="http://www.w3.org/2000/svg">
<path d="M86.3023 62.6221C86.2396 68.8007 84.3492 74.8224 80.8694 79.9288C77.3895 85.0351 72.4758 88.9974 66.7474 91.3166C61.019 93.6358 54.7321 94.2081 48.679 92.9613C42.6258 91.7145 37.0772 88.7045 32.7322 84.3104C28.3871 79.9164 25.4401 74.3349 24.2624 68.2693C23.0847 62.2036 23.7289 55.9252 26.1141 50.225C28.4992 44.5248 32.5184 39.6579 37.6654 36.2375C42.8123 32.8171 48.8567 30.9962 55.037 31.0042C59.1721 31.0082 63.2654 31.8313 67.0804 33.4261C70.8954 35.021 74.3564 37.3558 77.2636 40.2957C80.1707 43.2357 82.4663 46.7225 84.0178 50.5546C85.5692 54.3867 86.3456 58.4882 86.3023 62.6221Z" fill="#FF0000"/>
<path d="M54.8571 148.989H9.02815C2.38137 148.989 -0.328144 146.09 0.0317141 139.466C1.27005 116.398 18.829 98.8748 42.7066 97.9648C53.9786 97.5309 65.4835 97.5098 76.4803 99.4674C95.8491 102.991 109.344 120.366 109.989 140.101C110.18 145.963 107.407 148.915 101.522 148.926C85.9495 148.996 70.3945 149.018 54.8571 148.989Z" fill="#FF0000"/>
<path d="M78.9887 0C85.5191 9.40707 90.6312 19.0469 87.149 30.8772C85.5402 36.4114 81.7723 40.5171 77.0095 43.5752C73.0299 46.1465 64.9543 41.7763 64.9754 37.0357C65.0014 36.4436 65.1514 35.8636 65.4157 35.3332C65.6801 34.8027 66.053 34.3337 66.5101 33.9565C75.4642 28.253 78.4807 19.5337 78.957 9.52347C79.1157 6.47596 78.9887 3.44961 78.9887 0Z" fill="#FF0000"/>
<path d="M29.6353 0C23.0944 9.40707 17.9929 19.0469 21.475 30.8772C23.0838 36.4114 26.8517 40.5171 31.604 43.5752C35.6047 46.1465 43.6698 41.7763 43.6486 37.0781C43.6214 36.4852 43.4697 35.9046 43.2035 35.3741C42.9373 34.8436 42.5624 34.3751 42.1033 33.9988C33.181 28.253 30.1645 19.5337 29.6882 9.52347C29.5189 6.47596 29.6353 3.44961 29.6353 0Z" fill="#FF0000"/>
</svg>
