<?xml version="1.0" encoding="utf-8"?>
<!-- Generator: Adobe Illustrator 27.5.0, SVG Export Plug-In . SVG Version: 6.00 Build 0)  -->
<svg version="1.1" id="Layer_1" xmlns="http://www.w3.org/2000/svg" xmlns:xlink="http://www.w3.org/1999/xlink" x="0px" y="0px"
	 viewBox="0 0 121.4 54" style="enable-background:new 0 0 121.4 54;" xml:space="preserve">
<style type="text/css">
	.st0{fill:#010101;}
	.st1{fill:#1F2020;}
	.st2{fill:#333434;}
	.st3{fill:#ED1C24;}
</style>
<g id="Layer_2_00000099622615704456167210000002838187328992414091_">
	<g id="Layer_1-2">
		<g id="Layer_2-2">
			<g id="Layer_1-2-2">
				<g>
					
						<image style="overflow:visible;opacity:0.75;" width="91" height="68" xlink:href="B0AFC494.png"  transform="matrix(1 0 0 1 61 -3)">
					</image>
					<g>
						<path class="st0" d="M120.6,16.2L61,32.2V54l60.4-16.2c0-6,0-13.2,0.1-21.4L120.6,16.2z"/>
					</g>
				</g>
				<path class="st1" d="M0.1,16.1H0v6.1c0,2,0,4,0,5.9c0,3.5,0,6.8,0.1,9.7L61,54V32.3L0.1,16.1z"/>
				<g>
					
						<image style="overflow:visible;opacity:0.75;" width="152" height="63" xlink:href="B0AFC495.png"  transform="matrix(1 0 0 1 0 -19)">
					</image>
					<g>
						<path class="st2" d="M5.9,14.5L0.2,16C20.5,21.4,40.7,26.9,61,32.4c20.1-5.4,40.3-10.7,60.5-16C100.9,11,80.4,5.5,60,0
							C42,4.9,24,9.7,5.9,14.5z"/>
					</g>
				</g>
				<path class="st3" d="M99.3,43.7V22.1l-13.9,3.8l-2.1,0.6v21.7L99.3,43.7z"/>
				<path class="st3" d="M21.2,43.4V22.1l13.9,3.7l2.1,0.6v21.4L21.2,43.4z"/>
				<path class="st3" d="M80.4,5.5L21.2,21.9v0.2l16,4.3L96.7,9.9L80.4,5.5z"/>
				<path class="st3" d="M40,5.3l59.3,16.6v0.2l-16,4.3L23.6,9.8L40,5.3z"/>
			</g>
		</g>
	</g>
</g>
</svg>
