<svg version="1.1" id="Layer_1" xmlns="http://www.w3.org/2000/svg" xmlns:xlink="http://www.w3.org/1999/xlink" x="0px" y="0px"
	 width="108" height="21" viewBox="0 0 939 1059" enable-background="new 0 0 939 1059" xml:space="preserve">
<path fill="#F3F3F3" opacity="1.000000" stroke="none" 
	d="
M629.000000,1060.000000 
	C419.333344,1060.000000 210.166672,1060.000000 1.000000,1060.000000 
	C1.000000,707.000000 1.000000,354.000000 1.000000,1.000000 
	C314.000000,1.000000 627.000000,1.000000 940.000000,1.000000 
	C940.000000,354.000000 940.000000,707.000000 940.000000,1060.000000 
	C836.500000,1060.000000 733.000000,1060.000000 629.000000,1060.000000 
M120.138756,246.949905 
	C111.273705,246.949905 102.408646,246.949905 92.952843,246.949905 
	C93.308617,251.575317 93.607941,255.466797 93.935349,260.357880 
	C93.988052,264.218231 94.040749,268.078552 93.930466,272.872101 
	C93.968002,284.618134 94.005539,296.364166 93.985489,308.961609 
	C92.035934,323.604095 90.754128,338.267029 92.982666,352.998871 
	C94.931488,365.881683 100.609695,376.506531 112.105148,383.326233 
	C124.275589,390.546356 137.746170,392.732330 151.599457,392.260651 
	C174.284531,391.488342 196.947830,390.092316 219.630875,389.240021 
	C237.394302,388.572540 255.173706,388.329956 273.878326,388.058228 
	C294.264221,387.997955 314.650116,387.937683 335.963104,387.986969 
	C352.575714,388.354950 369.188354,388.722626 385.800934,389.091949 
	C386.467255,389.106750 387.134491,389.117981 387.799164,389.162750 
	C406.761841,390.439728 425.785675,391.159912 444.661774,393.228180 
	C454.723785,394.330627 464.690552,397.256775 474.397430,400.319733 
	C481.194153,402.464355 487.651062,405.915558 493.955353,409.343079 
	C506.678192,416.260315 518.529541,424.452057 527.679321,435.902863 
	C540.650879,452.136597 545.078308,471.892853 549.861694,491.408752 
	C551.847412,499.510254 553.092651,507.809509 554.360229,516.067078 
	C556.377563,529.209167 558.150269,542.389038 559.991638,555.557861 
	C561.582764,566.937988 563.100830,578.328308 564.697998,589.707581 
	C565.761414,597.283875 566.907043,604.848572 568.096741,612.969971 
	C520.987061,606.260437 474.503357,599.640015 426.715057,592.833740 
	C497.967560,715.180786 568.665405,836.575439 639.718140,958.579407 
	C711.866638,834.676392 783.207214,712.160706 854.779541,589.247070 
	C809.059326,597.388916 763.785522,605.451233 718.321167,613.547546 
	C717.489075,604.423096 716.885315,596.298523 715.969299,588.209290 
	C715.165771,581.112854 713.841919,574.074951 713.058899,566.976807 
	C712.199585,559.187805 711.850708,551.342468 710.992676,543.553284 
	C710.192505,536.289307 708.911987,529.079407 708.028931,521.823059 
	C706.634216,510.362976 705.872681,498.804138 703.972778,487.432495 
	C701.430481,472.215271 698.356262,457.068909 694.939148,442.021881 
	C692.518860,431.363983 689.282776,420.882080 686.156799,410.397369 
	C684.431458,404.610413 682.289734,398.938812 680.143311,393.288300 
	C677.134949,385.368683 674.299927,377.353302 670.735779,369.683258 
	C667.270203,362.225220 662.863892,355.210510 659.073975,347.895782 
	C651.292236,332.876831 641.279724,319.340881 629.737854,307.192169 
	C621.399231,298.415100 611.403748,291.194427 602.023743,283.428711 
	C588.358704,272.115326 572.159119,265.492279 555.798157,259.419098 
	C548.571411,256.736572 540.863281,255.211182 533.265137,253.710587 
	C526.555420,252.385452 519.712830,251.636810 512.895447,250.982681 
	C506.842926,250.401947 500.733154,250.441864 494.668610,249.957794 
	C482.908447,249.019119 471.179138,247.611130 459.406219,246.934464 
	C443.091858,245.996811 426.749023,245.554199 409.801117,244.599518 
	C370.869080,244.526825 331.937073,244.444427 293.005005,244.404236 
	C290.528503,244.401672 288.051636,244.726776 284.581604,244.931915 
	C261.427704,245.299377 238.273788,245.666824 214.181625,245.840302 
	C195.348679,246.197937 176.515717,246.555573 156.690125,246.937744 
	C153.470261,247.000870 150.250412,247.063980 146.101242,246.963135 
	C137.755798,247.026764 129.410370,247.090393 120.138756,246.949905 
z"/>
<path fill="#FF0000" opacity="1.000000" stroke="none" 
	d="
M272.946014,387.898590 
	C255.173706,388.329956 237.394302,388.572540 219.630875,389.240021 
	C196.947830,390.092316 174.284531,391.488342 151.599457,392.260651 
	C137.746170,392.732330 124.275589,390.546356 112.105148,383.326233 
	C100.609695,376.506531 94.931488,365.881683 92.982666,352.998871 
	C90.754128,338.267029 92.035934,323.604095 94.332764,308.245728 
	C94.783478,297.721161 94.940681,287.912537 94.946716,278.103821 
	C94.947983,276.049011 94.392418,273.993896 94.093452,271.938904 
	C94.040749,268.078552 93.988052,264.218231 93.997017,259.476410 
	C94.058685,255.176102 94.058685,251.757263 94.058685,247.833054 
	C103.433846,247.833054 112.189644,247.833054 121.416420,247.892014 
	C125.386848,247.966431 128.890564,248.097656 132.384750,247.969391 
	C137.270401,247.790039 142.148956,247.417160 147.030548,247.127090 
	C150.250412,247.063980 153.470261,247.000870 157.568375,247.001648 
	C175.770264,247.015411 193.094040,246.987549 210.417297,246.877441 
	C211.986542,246.867477 213.552429,246.327911 215.119873,246.034286 
	C238.273788,245.666824 261.427704,245.299377 285.473053,244.994629 
	C298.322876,245.039581 310.281219,245.019272 322.239594,245.004501 
	C351.632538,244.968185 381.025452,244.934433 410.418396,244.899628 
	C426.749023,245.554199 443.091858,245.996811 459.406219,246.934464 
	C471.179138,247.611130 482.908447,249.019119 494.668610,249.957794 
	C500.733154,250.441864 506.842926,250.401947 512.895447,250.982681 
	C519.712830,251.636810 526.555420,252.385452 533.265137,253.710587 
	C540.863281,255.211182 548.571411,256.736572 555.798157,259.419098 
	C572.159119,265.492279 588.358704,272.115326 602.023743,283.428711 
	C611.403748,291.194427 621.399231,298.415100 629.737854,307.192169 
	C641.279724,319.340881 651.292236,332.876831 659.073975,347.895782 
	C662.863892,355.210510 667.270203,362.225220 670.735779,369.683258 
	C674.299927,377.353302 677.134949,385.368683 680.143311,393.288300 
	C682.289734,398.938812 684.431458,404.610413 686.156799,410.397369 
	C689.282776,420.882080 692.518860,431.363983 694.939148,442.021881 
	C698.356262,457.068909 701.430481,472.215271 703.972778,487.432495 
	C705.872681,498.804138 706.634216,510.362976 708.028931,521.823059 
	C708.911987,529.079407 710.192505,536.289307 710.992676,543.553284 
	C711.850708,551.342468 712.199585,559.187805 713.058899,566.976807 
	C713.841919,574.074951 715.165771,581.112854 715.969299,588.209290 
	C716.885315,596.298523 717.489075,604.423096 718.321167,613.547546 
	C763.785522,605.451233 809.059326,597.388916 854.779541,589.247070 
	C783.207214,712.160706 711.866638,834.676392 639.718140,958.579407 
	C568.665405,836.575439 497.967560,715.180786 426.715057,592.833740 
	C474.503357,599.640015 520.987061,606.260437 568.096741,612.969971 
	C566.907043,604.848572 565.761414,597.283875 564.697998,589.707581 
	C563.100830,578.328308 561.582764,566.937988 559.991638,555.557861 
	C558.150269,542.389038 556.377563,529.209167 554.360229,516.067078 
	C553.092651,507.809509 551.847412,499.510254 549.861694,491.408752 
	C545.078308,471.892853 540.650879,452.136597 527.679321,435.902863 
	C518.529541,424.452057 506.678192,416.260315 493.955353,409.343079 
	C487.651062,405.915558 481.194153,402.464355 474.397430,400.319733 
	C464.690552,397.256775 454.723785,394.330627 444.661774,393.228180 
	C425.785675,391.159912 406.761841,390.439728 387.799164,389.162750 
	C387.134491,389.117981 386.467255,389.106750 385.800934,389.091949 
	C369.188354,388.722626 352.575714,388.354950 335.229553,387.602081 
	C314.702667,387.158844 294.909302,387.091431 275.115906,387.078583 
	C274.392792,387.078094 273.669312,387.613129 272.946014,387.898590 
z"/>
<path fill="#7A7A7A" opacity="1.000000" stroke="none" 
	d="
M410.109741,244.749573 
	C381.025452,244.934433 351.632538,244.968185 322.239594,245.004501 
	C310.281219,245.019272 298.322876,245.039581 285.969727,244.978394 
	C288.051636,244.726776 290.528503,244.401672 293.005005,244.404236 
	C331.937073,244.444427 370.869080,244.526825 410.109741,244.749573 
z"/>
<path fill="#7A7A7A" opacity="1.000000" stroke="none" 
	d="
M273.412170,387.978394 
	C273.669312,387.613129 274.392792,387.078094 275.115906,387.078583 
	C294.909302,387.091431 314.702667,387.158844 334.766022,387.547302 
	C314.650116,387.937683 294.264221,387.997955 273.412170,387.978394 
z"/>
<path fill="#7A7A7A" opacity="1.000000" stroke="none" 
	d="
M214.650757,245.937286 
	C213.552429,246.327911 211.986542,246.867477 210.417297,246.877441 
	C193.094040,246.987549 175.770264,247.015411 158.064697,246.989380 
	C176.515717,246.555573 195.348679,246.197937 214.650757,245.937286 
z"/>
<path fill="#7A7A7A" opacity="1.000000" stroke="none" 
	d="
M120.945450,247.833054 
	C112.189644,247.833054 103.433846,247.833054 94.058685,247.833054 
	C94.058685,251.757263 94.058685,255.176102 93.982971,258.976624 
	C93.607941,255.466797 93.308617,251.575317 92.952843,246.949905 
	C102.408646,246.949905 111.273705,246.949905 120.570419,247.221436 
	C121.002090,247.492981 120.945450,247.833054 120.945450,247.833054 
z"/>
<path fill="#7A7A7A" opacity="1.000000" stroke="none" 
	d="
M94.011963,272.405518 
	C94.392418,273.993896 94.947983,276.049011 94.946716,278.103821 
	C94.940681,287.912537 94.783478,297.721161 94.361557,307.820007 
	C94.005539,296.364166 93.968002,284.618134 94.011963,272.405518 
z"/>
<path fill="#404040" opacity="1.000000" stroke="none" 
	d="
M121.416420,247.892014 
	C120.945450,247.833054 121.002090,247.492981 121.033508,247.323502 
	C129.410370,247.090393 137.755798,247.026764 146.565887,247.045105 
	C142.148956,247.417160 137.270401,247.790039 132.384750,247.969391 
	C128.890564,248.097656 125.386848,247.966431 121.416420,247.892014 
z"/>
</svg>