<svg version="1.1" id="Layer_1" xmlns="http://www.w3.org/2000/svg" xmlns:xlink="http://www.w3.org/1999/xlink" x="0px" y="0px"
	 width="108" height="21" viewBox="0 0 939 1059" enable-background="new 0 0 939 1059" xml:space="preserve">
<path fill="#F3F3F3" opacity="1.000000" stroke="none" 
	d="
M633.000000,1060.000000 
	C422.000000,1060.000000 211.500000,1060.000000 1.000000,1060.000000 
	C1.000000,707.000000 1.000000,354.000000 1.000000,1.000000 
	C314.000000,1.000000 627.000000,1.000000 940.000000,1.000000 
	C940.000000,354.000000 940.000000,707.000000 940.000000,1060.000000 
	C837.833313,1060.000000 735.666687,1060.000000 633.000000,1060.000000 
M811.959961,247.982025 
	C802.238342,247.633453 792.516663,247.284897 782.274475,246.760895 
	C763.489441,246.531372 744.704407,246.301865 724.924683,246.005600 
	C722.194397,245.984192 719.464111,245.962769 716.226746,245.767242 
	C699.457642,245.535614 682.688477,245.303970 664.991028,245.005997 
	C661.807922,244.970123 658.624878,244.934250 654.808167,244.632996 
	C614.199646,244.568085 573.591064,244.500519 532.982544,244.457642 
	C532.176819,244.456787 531.370911,244.745224 529.619690,244.932175 
	C516.276672,245.621429 502.935699,246.354843 489.589355,246.971985 
	C485.771423,247.148529 481.918732,246.738113 478.115143,247.029297 
	C466.676758,247.904953 455.250977,248.953201 443.827454,250.011780 
	C433.736572,250.946854 423.647858,251.915665 413.571472,252.993896 
	C391.410797,255.365204 371.072357,263.260590 351.929718,274.237122 
	C328.395264,287.731964 309.285889,306.207550 293.704132,328.309387 
	C278.346283,350.093628 267.095276,373.951935 258.013092,398.975128 
	C250.750305,418.985596 245.506012,439.528809 241.198318,460.272583 
	C237.671265,477.257202 235.352203,494.517609 233.094818,511.734070 
	C230.698044,530.013367 229.006485,548.385071 227.004486,566.716125 
	C225.292709,582.389771 223.577393,598.062988 221.882492,613.564087 
	C176.601334,605.466675 131.617325,597.422363 85.852486,589.238403 
	C157.540192,712.357117 228.886688,834.889771 300.911560,958.587463 
	C372.104492,836.299561 442.789734,714.883728 513.885803,592.762146 
	C466.257507,599.551697 419.862030,606.165527 372.485382,612.919189 
	C373.757202,605.026550 375.071625,597.666809 376.108246,590.268188 
	C378.179962,575.481567 379.992035,560.658142 382.111938,545.878784 
	C384.253448,530.948669 386.584137,516.044922 388.930969,501.145294 
	C391.305603,486.069092 395.268555,471.417023 401.217651,457.343719 
	C403.516083,451.906525 405.220917,445.947449 408.667267,441.322266 
	C416.072571,431.383972 424.990204,422.753387 435.589844,416.078430 
	C455.403748,403.600891 476.028351,393.739807 500.163879,392.869995 
	C519.834534,392.161041 539.452332,390.085541 559.117432,389.084747 
	C574.379761,388.308014 589.678955,388.254700 605.892578,388.029755 
	C626.280273,387.986725 646.668030,387.943695 667.982361,387.989441 
	C678.933594,388.326233 689.890137,388.541382 700.834839,389.026031 
	C721.347534,389.934387 741.844238,391.388855 762.365051,391.867065 
	C777.110474,392.210663 791.941956,392.022583 806.626465,390.783936 
	C817.806396,389.840881 828.236328,385.515808 836.427185,377.280457 
	C845.533508,368.124664 848.519348,356.278229 848.816528,344.069275 
	C849.107788,332.105713 847.649231,320.099548 847.139038,307.172546 
	C847.062195,295.760803 846.985413,284.349030 846.682983,272.171509 
	C846.824646,267.615295 846.966309,263.059113 847.402466,257.872070 
	C847.571289,254.432755 847.740173,250.993439 847.941895,246.884506 
	C836.557251,246.884506 825.764404,246.866852 814.972046,246.925186 
	C814.269592,246.928986 813.570251,247.516434 811.959961,247.982025 
z"/>
<path fill="#FF0000" opacity="1.000000" stroke="none" 
	d="
M846.958618,308.112061 
	C847.649231,320.099548 849.107788,332.105713 848.816528,344.069275 
	C848.519348,356.278229 845.533508,368.124664 836.427185,377.280457 
	C828.236328,385.515808 817.806396,389.840881 806.626465,390.783936 
	C791.941956,392.022583 777.110474,392.210663 762.365051,391.867065 
	C741.844238,391.388855 721.347534,389.934387 700.834839,389.026031 
	C689.890137,388.541382 678.933594,388.326233 667.245117,387.616364 
	C646.714905,387.172058 626.921936,387.091736 607.128845,387.065735 
	C606.406799,387.064789 605.684143,387.596436 604.961731,387.879852 
	C589.678955,388.254700 574.379761,388.308014 559.117432,389.084747 
	C539.452332,390.085541 519.834534,392.161041 500.163879,392.869995 
	C476.028351,393.739807 455.403748,403.600891 435.589844,416.078430 
	C424.990204,422.753387 416.072571,431.383972 408.667267,441.322266 
	C405.220917,445.947449 403.516083,451.906525 401.217651,457.343719 
	C395.268555,471.417023 391.305603,486.069092 388.930969,501.145294 
	C386.584137,516.044922 384.253448,530.948669 382.111938,545.878784 
	C379.992035,560.658142 378.179962,575.481567 376.108246,590.268188 
	C375.071625,597.666809 373.757202,605.026550 372.485382,612.919189 
	C419.862030,606.165527 466.257507,599.551697 513.885803,592.762146 
	C442.789734,714.883728 372.104492,836.299561 300.911560,958.587463 
	C228.886688,834.889771 157.540192,712.357117 85.852486,589.238403 
	C131.617325,597.422363 176.601334,605.466675 221.882492,613.564087 
	C223.577393,598.062988 225.292709,582.389771 227.004486,566.716125 
	C229.006485,548.385071 230.698044,530.013367 233.094818,511.734070 
	C235.352203,494.517609 237.671265,477.257202 241.198318,460.272583 
	C245.506012,439.528809 250.750305,418.985596 258.013092,398.975128 
	C267.095276,373.951935 278.346283,350.093628 293.704132,328.309387 
	C309.285889,306.207550 328.395264,287.731964 351.929718,274.237122 
	C371.072357,263.260590 391.410797,255.365204 413.571472,252.993896 
	C423.647858,251.915665 433.736572,250.946854 443.827454,250.011780 
	C455.250977,248.953201 466.676758,247.904953 478.115143,247.029297 
	C481.918732,246.738113 485.771423,247.148529 489.589355,246.971985 
	C502.935699,246.354843 516.276672,245.621429 530.488525,244.992508 
	C545.976990,245.029861 560.596497,245.002350 575.216064,244.984863 
	C601.957947,244.952896 628.699890,244.926865 655.441772,244.898376 
	C658.624878,244.934250 661.807922,244.970123 665.727966,245.372467 
	C683.221191,245.806396 699.977539,245.873886 716.733826,245.941345 
	C719.464111,245.962769 722.194397,245.984192 725.694824,246.372253 
	C745.241638,246.804718 764.018311,246.870529 782.795044,246.936325 
	C792.516663,247.284897 802.238342,247.633453 812.890320,247.951538 
	C824.749634,247.921036 835.678650,247.921036 847.107971,247.921036 
	C847.107971,251.914230 847.107971,255.208572 847.107971,258.502899 
	C846.966309,263.059113 846.824646,267.615295 846.467651,272.829834 
	C846.165405,282.634857 846.008545,291.781769 846.038940,300.928040 
	C846.046875,303.323700 846.636292,305.717438 846.958618,308.112061 
z"/>
<path fill="#7B7B7B" opacity="1.000000" stroke="none" 
	d="
M655.125000,244.765686 
	C628.699890,244.926865 601.957947,244.952896 575.216064,244.984863 
	C560.596497,245.002350 545.976990,245.029861 530.961243,244.975769 
	C531.370911,244.745224 532.176819,244.456787 532.982544,244.457642 
	C573.591064,244.500519 614.199646,244.568085 655.125000,244.765686 
z"/>
<path fill="#7B7B7B" opacity="1.000000" stroke="none" 
	d="
M605.427124,387.954803 
	C605.684143,387.596436 606.406799,387.064789 607.128845,387.065735 
	C626.921936,387.091736 646.714905,387.172058 666.781860,387.571991 
	C646.668030,387.943695 626.280273,387.986725 605.427124,387.954803 
z"/>
<path fill="#636363" opacity="1.000000" stroke="none" 
	d="
M782.534790,246.848602 
	C764.018311,246.870529 745.241638,246.804718 726.192139,246.405640 
	C744.704407,246.301865 763.489441,246.531372 782.534790,246.848602 
z"/>
<path fill="#636363" opacity="1.000000" stroke="none" 
	d="
M716.480286,245.854309 
	C699.977539,245.873886 683.221191,245.806396 666.192139,245.405624 
	C682.688477,245.303970 699.457642,245.535614 716.480286,245.854309 
z"/>
<path fill="#7B7B7B" opacity="1.000000" stroke="none" 
	d="
M847.255249,258.187500 
	C847.107971,255.208572 847.107971,251.914230 847.107971,247.921036 
	C835.678650,247.921036 824.749634,247.921036 813.345093,247.876724 
	C813.570251,247.516434 814.269592,246.928986 814.972046,246.925186 
	C825.764404,246.866852 836.557251,246.884506 847.941895,246.884506 
	C847.740173,250.993439 847.571289,254.432755 847.255249,258.187500 
z"/>
<path fill="#7B7B7B" opacity="1.000000" stroke="none" 
	d="
M847.048828,307.642303 
	C846.636292,305.717438 846.046875,303.323700 846.038940,300.928040 
	C846.008545,291.781769 846.165405,282.634857 846.580444,273.212738 
	C846.985413,284.349030 847.062195,295.760803 847.048828,307.642303 
z"/>
</svg>